<?xml version="1.0" standalone="no"?>
<!DOCTYPE svg PUBLIC "-//W3C//DTD SVG 1.0//EN" "http://www.w3.org/TR/2001/REC-SVG-20010904/DTD/svg10.dtd">
<svg xmlns="http://www.w3.org/2000/svg" xmlns:xlink="http://www.w3.org/1999/xlink" id="body_1" width="666" height="499">

<g transform="matrix(15.844288 0 0 15.844288 83.500015 -0)">
    <path d="M10.273 5.009C 10.717 4.5649996 11.415999 4.5649996 11.86 5.009C 12.289 5.4379997 12.289 6.152 11.86 6.58L11.86 6.58L3.8129997 14.627L30.367 14.627C 30.986 14.627 31.494001 15.1189995 31.494001 15.738C 31.494001 16.357 30.986002 16.865 30.367 16.865L30.367 16.865L3.813 16.865L11.86 24.897C 12.289 25.341 12.289 26.056 11.86 26.484C 11.415999 26.928 10.717 26.928 10.273 26.484L10.273 26.484L0.3210001 16.532C -0.10799989 16.102999 -0.10799989 15.389 0.3210001 14.9609995L0.3210001 14.9609995L10.273 5.009z" stroke="none" fill="#1E201D" fill-rule="nonzero" />
	<g>
	</g>
	<g>
	</g>
	<g>
	</g>
	<g>
	</g>
	<g>
	</g>
	<g>
	</g>
	<g>
	</g>
	<g>
	</g>
	<g>
	</g>
	<g>
	</g>
	<g>
	</g>
	<g>
	</g>
	<g>
	</g>
	<g>
	</g>
	<g>
	</g>
</g>
</svg>